<svg xmlns="http://www.w3.org/2000/svg" viewBox="0 0 100 100" fill="none">
  <g fill="#1a5c4c">
    <!-- Left wing upper -->
    <path d="M50 50 C35 35, 15 30, 10 45 C5 60, 20 70, 35 65 C40 63, 45 58, 50 50" opacity="0.9"/>
    <!-- Left wing lower -->
    <path d="M50 50 C40 55, 25 65, 20 80 C18 88, 30 90, 40 80 C45 72, 48 60, 50 50" opacity="0.85"/>
    <!-- Right wing upper -->
    <path d="M50 50 C65 35, 85 30, 90 45 C95 60, 80 70, 65 65 C60 63, 55 58, 50 50" opacity="0.9"/>
    <!-- Right wing lower -->
    <path d="M50 50 C60 55, 75 65, 80 80 C82 88, 70 90, 60 80 C55 72, 52 60, 50 50" opacity="0.85"/>
    <!-- Body -->
    <ellipse cx="50" cy="50" rx="3" ry="18"/>
    <!-- Antennae -->
    <path d="M48 33 Q45 25, 42 20" stroke="#1a5c4c" stroke-width="1.5" fill="none" stroke-linecap="round"/>
    <path d="M52 33 Q55 25, 58 20" stroke="#1a5c4c" stroke-width="1.5" fill="none" stroke-linecap="round"/>
  </g>
</svg>
